<svg width="226" height="35" viewBox="0 0 226 35" fill="none" xmlns="http://www.w3.org/2000/svg">
<path d="M11.624 34C10.28 34 9.24 33.632 8.504 32.896C7.8 32.16 7.448 31.152 7.448 29.872V13.84H0.392V10.528H7.448V2.176H11.24V10.528H18.92V13.84H11.24V29.296C11.24 30.256 11.704 30.736 12.632 30.736H17.864V34H11.624ZM32.5704 34.672C30.2024 34.672 28.1224 34.176 26.3304 33.184C24.5384 32.16 23.1464 30.736 22.1544 28.912C21.1624 27.088 20.6664 24.976 20.6664 22.576V22C20.6664 19.568 21.1624 17.44 22.1544 15.616C23.1464 13.792 24.5224 12.384 26.2824 11.392C28.0424 10.368 30.0584 9.856 32.3304 9.856C34.5384 9.856 36.4904 10.336 38.1864 11.296C39.8824 12.224 41.2104 13.568 42.1704 15.328C43.1304 17.088 43.6104 19.152 43.6104 21.52V23.248H24.4584C24.5544 25.776 25.3704 27.76 26.9064 29.2C28.4424 30.608 30.3624 31.312 32.6664 31.312C34.6824 31.312 36.2344 30.848 37.3224 29.92C38.4104 28.992 39.2424 27.888 39.8184 26.608L43.0824 28.192C42.6024 29.184 41.9304 30.176 41.0664 31.168C40.2344 32.16 39.1304 32.992 37.7544 33.664C36.4104 34.336 34.6824 34.672 32.5704 34.672ZM24.5064 20.128H39.7704C39.6424 17.952 38.8904 16.256 37.5144 15.04C36.1704 13.824 34.4424 13.216 32.3304 13.216C30.1864 13.216 28.4264 13.824 27.0504 15.04C25.6744 16.256 24.8264 17.952 24.5064 20.128ZM55.0246 34.672C53.3926 34.672 51.9046 34.384 50.5606 33.808C49.2166 33.232 48.1606 32.4 47.3926 31.312C46.6246 30.224 46.2406 28.896 46.2406 27.328C46.2406 25.728 46.6246 24.416 47.3926 23.392C48.1606 22.336 49.2166 21.552 50.5606 21.04C51.9046 20.496 53.4086 20.224 55.0726 20.224H62.9926V18.496C62.9926 16.832 62.4966 15.52 61.5046 14.56C60.5446 13.6 59.1046 13.12 57.1846 13.12C55.2966 13.12 53.8246 13.584 52.7686 14.512C51.7126 15.408 50.9926 16.624 50.6086 18.16L47.0566 17.008C47.4406 15.696 48.0486 14.512 48.8806 13.456C49.7126 12.368 50.8166 11.504 52.1926 10.864C53.6006 10.192 55.2806 9.856 57.2326 9.856C60.2406 9.856 62.5766 10.64 64.2406 12.208C65.9046 13.744 66.7366 15.92 66.7366 18.736V29.344C66.7366 30.304 67.1846 30.784 68.0806 30.784H70.2406V34H66.9286C65.8726 34 65.0246 33.712 64.3846 33.136C63.7446 32.528 63.4246 31.728 63.4246 30.736V30.496H62.8486C62.4966 31.104 62.0166 31.744 61.4086 32.416C60.8326 33.056 60.0326 33.584 59.0086 34C57.9846 34.448 56.6566 34.672 55.0246 34.672ZM55.4566 31.408C57.6966 31.408 59.5046 30.752 60.8806 29.44C62.2886 28.096 62.9926 26.224 62.9926 23.824V23.296H55.2166C53.7126 23.296 52.4646 23.632 51.4726 24.304C50.5126 24.944 50.0326 25.92 50.0326 27.232C50.0326 28.544 50.5286 29.568 51.5206 30.304C52.5446 31.04 53.8566 31.408 55.4566 31.408ZM73.034 34V10.528H76.73V13.456H77.402C77.85 12.624 78.586 11.856 79.61 11.152C80.634 10.448 82.074 10.096 83.93 10.096C85.754 10.096 87.226 10.496 88.346 11.296C89.498 12.096 90.33 13.072 90.842 14.224H91.514C92.058 13.072 92.874 12.096 93.962 11.296C95.082 10.496 96.634 10.096 98.618 10.096C100.186 10.096 101.562 10.416 102.746 11.056C103.93 11.696 104.858 12.624 105.53 13.84C106.234 15.024 106.586 16.448 106.586 18.112V34H102.794V18.448C102.794 16.88 102.33 15.648 101.402 14.752C100.506 13.824 99.242 13.36 97.61 13.36C95.882 13.36 94.458 13.92 93.338 15.04C92.25 16.16 91.706 17.776 91.706 19.888V34H87.914V18.448C87.914 16.88 87.45 15.648 86.522 14.752C85.626 13.824 84.362 13.36 82.73 13.36C81.002 13.36 79.578 13.92 78.458 15.04C77.37 16.16 76.826 17.776 76.826 19.888V34H73.034ZM115.883 34V13.84H108.683V10.528H115.883V4.528C115.883 3.248 116.235 2.24 116.939 1.504C117.675 0.767998 118.715 0.399998 120.059 0.399998H125.819V3.664H121.115C120.155 3.664 119.675 4.144 119.675 5.104V10.528H131.339V13.84H119.675V34H115.883ZM131.339 34V10.528H135.131V34H131.339ZM133.211 6.928C132.411 6.928 131.723 6.656 131.147 6.112C130.603 5.568 130.331 4.88 130.331 4.048C130.331 3.184 130.603 2.496 131.147 1.984C131.723 1.44 132.411 1.168 133.211 1.168C134.075 1.168 134.779 1.44 135.323 1.984C135.867 2.496 136.139 3.184 136.139 4.048C136.139 4.88 135.867 5.568 135.323 6.112C134.779 6.656 134.075 6.928 133.211 6.928ZM131.583 34V10.528H135.279V14.512H135.951C136.463 13.392 137.327 12.384 138.543 11.488C139.791 10.56 141.615 10.096 144.015 10.096C145.775 10.096 147.343 10.464 148.719 11.2C150.127 11.936 151.247 13.024 152.079 14.464C152.911 15.904 153.327 17.68 153.327 19.792V34H149.535V20.08C149.535 17.744 148.943 16.048 147.759 14.992C146.607 13.936 145.039 13.408 143.055 13.408C140.783 13.408 138.927 14.144 137.487 15.616C136.079 17.088 135.375 19.28 135.375 22.192V34H131.583ZM168.556 34.672C166.54 34.672 164.684 34.192 162.988 33.232C161.292 32.272 159.948 30.88 158.956 29.056C157.964 27.232 157.468 25.072 157.468 22.576V21.952C157.468 19.456 157.964 17.312 158.956 15.52C159.948 13.696 161.276 12.304 162.94 11.344C164.636 10.352 166.508 9.856 168.556 9.856C170.188 9.856 171.564 10.08 172.684 10.528C173.836 10.944 174.764 11.488 175.468 12.16C176.172 12.8 176.716 13.488 177.1 14.224H177.772V0.399998H181.564V34H177.868V30.112H177.196C176.556 31.296 175.564 32.352 174.22 33.28C172.876 34.208 170.988 34.672 168.556 34.672ZM169.564 31.312C171.996 31.312 173.964 30.544 175.468 29.008C177.004 27.44 177.772 25.264 177.772 22.48V22.048C177.772 19.264 177.004 17.104 175.468 15.568C173.964 14 171.996 13.216 169.564 13.216C167.164 13.216 165.18 14 163.612 15.568C162.076 17.104 161.308 19.264 161.308 22.048V22.48C161.308 25.264 162.076 27.44 163.612 29.008C165.18 30.544 167.164 31.312 169.564 31.312ZM197.863 34.672C195.495 34.672 193.415 34.176 191.623 33.184C189.831 32.16 188.439 30.736 187.447 28.912C186.455 27.088 185.959 24.976 185.959 22.576V22C185.959 19.568 186.455 17.44 187.447 15.616C188.439 13.792 189.815 12.384 191.575 11.392C193.335 10.368 195.351 9.856 197.623 9.856C199.831 9.856 201.783 10.336 203.479 11.296C205.175 12.224 206.503 13.568 207.463 15.328C208.423 17.088 208.903 19.152 208.903 21.52V23.248H189.751C189.847 25.776 190.663 27.76 192.199 29.2C193.735 30.608 195.655 31.312 197.959 31.312C199.975 31.312 201.527 30.848 202.615 29.92C203.703 28.992 204.535 27.888 205.111 26.608L208.375 28.192C207.895 29.184 207.223 30.176 206.359 31.168C205.527 32.16 204.423 32.992 203.047 33.664C201.703 34.336 199.975 34.672 197.863 34.672ZM189.799 20.128H205.063C204.935 17.952 204.183 16.256 202.807 15.04C201.463 13.824 199.735 13.216 197.623 13.216C195.479 13.216 193.719 13.824 192.343 15.04C190.967 16.256 190.119 17.952 189.799 20.128ZM213.117 34V10.528H216.813V13.408H217.485C217.901 12.384 218.541 11.632 219.405 11.152C220.269 10.672 221.405 10.432 222.813 10.432H225.597V13.888H222.573C220.877 13.888 219.501 14.368 218.445 15.328C217.421 16.256 216.909 17.712 216.909 19.696V34H213.117Z" fill="white"/>
</svg>
