<svg width="28" height="28" viewBox="0 0 28 28" fill="none" xmlns="http://www.w3.org/2000/svg">
<path d="M11.9785 24.5C12.1833 24.8547 12.4779 25.1492 12.8326 25.354C13.1873 25.5588 13.5896 25.6666 13.9992 25.6666C14.4087 25.6666 14.8111 25.5588 15.1658 25.354C15.5205 25.1492 15.815 24.8547 16.0198 24.5" stroke="white" stroke-width="2" stroke-linecap="round" stroke-linejoin="round"/>
<path d="M3.80481 17.881C3.65241 18.048 3.55183 18.2558 3.51531 18.4789C3.4788 18.7021 3.50792 18.931 3.59914 19.1379C3.69036 19.3449 3.83974 19.5208 4.02911 19.6444C4.21849 19.7679 4.43969 19.8338 4.66581 19.834H23.3325C23.5586 19.8341 23.7798 19.7684 23.9693 19.6451C24.1588 19.5218 24.3084 19.346 24.3999 19.1393C24.4913 18.9325 24.5207 18.7036 24.4845 18.4804C24.4483 18.2572 24.348 18.0494 24.1958 17.8822C22.6441 16.2827 20.9991 14.5828 20.9991 9.33398C20.9991 7.47747 20.2617 5.69699 18.9489 4.38424C17.6361 3.07148 15.8557 2.33398 13.9991 2.33398C12.1426 2.33398 10.3622 3.07148 9.0494 4.38424C7.73665 5.69699 6.99915 7.47747 6.99915 9.33398C6.99915 14.5828 5.35298 16.2827 3.80481 17.881Z" stroke="white" stroke-width="2" stroke-linecap="round" stroke-linejoin="round"/>
</svg>
