<svg width="16" height="16" viewBox="0 0 16 16" fill="none" xmlns="http://www.w3.org/2000/svg">
<path fill-rule="evenodd" clip-rule="evenodd" d="M8.5734 3.35858C8.46824 3.35858 8.3809 3.4366 8.3809 3.56224V6.14876H7.90376C6.9914 6.14876 6.12096 6.24063 5.33355 6.57398C4.67701 6.85349 4.14519 7.25299 3.72846 7.77201C2.89349 8.82121 2.46015 10.3615 2.46015 12.368C2.46015 12.4654 2.48772 12.557 2.52155 12.6088C2.53564 12.6304 2.54538 12.637 2.54653 12.6377C2.54688 12.6378 2.54768 12.638 2.549 12.6382C2.55068 12.6384 2.55354 12.6387 2.55778 12.6387C2.68481 12.6387 2.75867 12.5965 2.82378 12.4772C3.90174 10.4473 5.83355 9.85407 7.90376 9.85407H8.3809V12.4629C8.3809 12.5362 8.39932 12.5674 8.4226 12.5915C8.44661 12.6138 8.4836 12.6325 8.53926 12.6374C8.5992 12.6426 8.66796 12.6299 8.72832 12.5998L8.73622 12.5958L8.74426 12.5922C8.80515 12.5645 8.89046 12.5088 8.99913 12.4062L13.4045 8.2465C13.476 8.17991 13.5008 8.13451 13.5088 8.11434C13.5472 8.0166 13.546 7.97219 13.5088 7.87734C13.5008 7.85716 13.476 7.81175 13.4045 7.74517L8.99811 3.62358C8.78357 3.41977 8.66767 3.35858 8.5734 3.35858ZM7.42662 3.56224C7.42662 2.93277 7.91829 2.4043 8.5734 2.4043C9.08424 2.4043 9.44955 2.73624 9.65402 2.93042C9.65448 2.93085 9.65493 2.93129 9.65538 2.93172L14.0548 7.04673C14.0549 7.04683 14.0547 7.04663 14.0548 7.04673C14.1989 7.18098 14.3231 7.34038 14.397 7.5284C14.5201 7.84188 14.5257 8.13566 14.397 8.46327C14.3233 8.65088 14.1998 8.8097 14.0561 8.94375C14.0556 8.94415 14.0552 8.94455 14.0548 8.94494L9.65437 13.1C9.65436 13.1 9.65438 13.1 9.65437 13.1C9.49747 13.2482 9.32867 13.3734 9.14704 13.4573C8.74113 13.6566 8.15988 13.6664 7.75559 13.2741L7.75048 13.2691C7.52949 13.0481 7.42662 12.7663 7.42662 12.4629V10.8203C5.75618 10.9066 4.43633 11.4737 3.66567 12.9265L3.66373 12.9301C3.43656 13.3495 3.04584 13.593 2.55778 13.593C2.16776 13.593 1.88632 13.3816 1.72234 13.1303C1.56774 12.8934 1.50586 12.6111 1.50586 12.368C1.50586 10.242 1.96269 8.45774 2.98249 7.17688L2.98364 7.17542C3.50425 6.52674 4.16632 6.03367 4.9602 5.69576L4.961 5.69542C5.76294 5.35582 6.60673 5.23383 7.42662 5.20303V3.56224Z" fill="white"/>
</svg>
