<svg width="21" height="24" viewBox="0 0 21 24" fill="none" xmlns="http://www.w3.org/2000/svg">
<path d="M5.83333 14C5.50278 14 5.22589 13.888 5.00267 13.664C4.77944 13.44 4.66744 13.1631 4.66667 12.8333C4.66589 12.5036 4.77789 12.2267 5.00267 12.0027C5.22744 11.7787 5.50433 11.6667 5.83333 11.6667C6.16233 11.6667 6.43961 11.7787 6.66517 12.0027C6.89072 12.2267 7.00233 12.5036 7 12.8333C6.99767 13.1631 6.88567 13.4404 6.664 13.6652C6.44233 13.8899 6.16544 14.0016 5.83333 14ZM10.5 14C10.1694 14 9.89256 13.888 9.66933 13.664C9.44611 13.44 9.33411 13.1631 9.33333 12.8333C9.33255 12.5036 9.44456 12.2267 9.66933 12.0027C9.89411 11.7787 10.171 11.6667 10.5 11.6667C10.829 11.6667 11.1063 11.7787 11.3318 12.0027C11.5574 12.2267 11.669 12.5036 11.6667 12.8333C11.6643 13.1631 11.5523 13.4404 11.3307 13.6652C11.109 13.8899 10.8321 14.0016 10.5 14ZM15.1667 14C14.8361 14 14.5592 13.888 14.336 13.664C14.1128 13.44 14.0008 13.1631 14 12.8333C13.9992 12.5036 14.1112 12.2267 14.336 12.0027C14.5608 11.7787 14.8377 11.6667 15.1667 11.6667C15.4957 11.6667 15.7729 11.7787 15.9985 12.0027C16.2241 12.2267 16.3357 12.5036 16.3333 12.8333C16.331 13.1631 16.219 13.4404 15.9973 13.6652C15.7757 13.8899 15.4988 14.0016 15.1667 14ZM2.33333 23.3333C1.69167 23.3333 1.14256 23.1051 0.686 22.6485C0.229445 22.1919 0.000777778 21.6424 0 21V4.66667C0 4.025 0.228667 3.47589 0.686 3.01934C1.14333 2.56278 1.69244 2.33411 2.33333 2.33334H3.5V1.16667C3.5 0.836115 3.612 0.559226 3.836 0.336004C4.06 0.112782 4.33689 0.000781801 4.66667 4.02298e-06C4.99644 -0.000773755 5.27372 0.111226 5.4985 0.336004C5.72328 0.560782 5.83489 0.837671 5.83333 1.16667V2.33334H15.1667V1.16667C15.1667 0.836115 15.2787 0.559226 15.5027 0.336004C15.7267 0.112782 16.0036 0.000781801 16.3333 4.02298e-06C16.6631 -0.000773755 16.9404 0.111226 17.1652 0.336004C17.3899 0.560782 17.5016 0.837671 17.5 1.16667V2.33334H18.6667C19.3083 2.33334 19.8578 2.562 20.3152 3.01934C20.7725 3.47667 21.0008 4.02578 21 4.66667V21C21 21.6417 20.7717 22.1912 20.3152 22.6485C19.8586 23.1058 19.3091 23.3341 18.6667 23.3333H2.33333ZM2.33333 21H18.6667V9.33334H2.33333V21ZM2.33333 7H18.6667V4.66667H2.33333V7Z" fill="white"/>
</svg>
