<svg width="28" height="28" viewBox="0 0 28 28" fill="none" xmlns="http://www.w3.org/2000/svg">
<path d="M11.6673 25.6667V8.16667C11.6673 7.85725 11.5444 7.5605 11.3256 7.34171C11.1068 7.12292 10.8101 7 10.5007 7H4.66732C4.04848 7 3.45499 7.24583 3.0174 7.68342C2.57982 8.121 2.33398 8.71449 2.33398 9.33333V23.3333C2.33398 23.9522 2.57982 24.5457 3.0174 24.9832C3.45499 25.4208 4.04848 25.6667 4.66732 25.6667H18.6673C19.2862 25.6667 19.8796 25.4208 20.3172 24.9832C20.7548 24.5457 21.0007 23.9522 21.0007 23.3333V17.5C21.0007 17.1906 20.8777 16.8938 20.6589 16.675C20.4402 16.4562 20.1434 16.3333 19.834 16.3333H2.33398" stroke="white" stroke-width="2" stroke-linecap="round" stroke-linejoin="round"/>
<path d="M24.5007 2.33398H17.5007C16.8563 2.33398 16.334 2.85632 16.334 3.50065V10.5007C16.334 11.145 16.8563 11.6673 17.5007 11.6673H24.5007C25.145 11.6673 25.6673 11.145 25.6673 10.5007V3.50065C25.6673 2.85632 25.145 2.33398 24.5007 2.33398Z" stroke="white" stroke-width="2" stroke-linecap="round" stroke-linejoin="round"/>
</svg>
