<svg width="28" height="28" viewBox="0 0 28 28" fill="none" xmlns="http://www.w3.org/2000/svg">
<path d="M10.5035 7.00041C10.5035 6.07308 10.8719 5.18373 11.5276 4.52801C12.1833 3.87229 13.0727 3.50391 14 3.50391C14.9273 3.50391 15.8167 3.87229 16.4724 4.52801C17.1281 5.18373 17.4965 6.07308 17.4965 7.00041C17.4965 7.92774 17.1281 8.81708 16.4724 9.47281C15.8167 10.1285 14.9273 10.4969 14 10.4969C13.0727 10.4969 12.1833 10.1285 11.5276 9.47281C10.8719 8.81708 10.5035 7.92774 10.5035 7.00041ZM14 5.25391C13.7706 5.25391 13.5435 5.29908 13.3316 5.38685C13.1197 5.47462 12.9272 5.60327 12.765 5.76544C12.6029 5.92762 12.4742 6.12015 12.3864 6.33205C12.2987 6.54394 12.2535 6.77105 12.2535 7.00041C12.2535 7.22976 12.2987 7.45687 12.3864 7.66876C12.4742 7.88066 12.6029 8.07319 12.765 8.23537C12.9272 8.39755 13.1197 8.52619 13.3316 8.61396C13.5435 8.70173 13.7706 8.74691 14 8.74691C14.4632 8.74691 14.9074 8.5629 15.235 8.23537C15.5625 7.90784 15.7465 7.46361 15.7465 7.00041C15.7465 6.53721 15.5625 6.09298 15.235 5.76544C14.9074 5.43791 14.4632 5.25391 14 5.25391ZM19.25 7.87541C19.25 7.53069 19.3179 7.18934 19.4498 6.87086C19.5817 6.55238 19.7751 6.263 20.0188 6.01925C20.2626 5.7755 20.552 5.58214 20.8705 5.45022C21.1889 5.3183 21.5303 5.25041 21.875 5.25041C22.2197 5.25041 22.5611 5.3183 22.8795 5.45022C23.198 5.58214 23.4874 5.7755 23.7312 6.01925C23.9749 6.263 24.1683 6.55238 24.3002 6.87086C24.4321 7.18934 24.5 7.53069 24.5 7.87541C24.5 8.5716 24.2234 9.23928 23.7312 9.73156C23.2389 10.2238 22.5712 10.5004 21.875 10.5004C21.1788 10.5004 20.5111 10.2238 20.0188 9.73156C19.5266 9.23928 19.25 8.5716 19.25 7.87541ZM21.875 7.00041C21.6429 7.00041 21.4204 7.09259 21.2563 7.25669C21.0922 7.42078 21 7.64334 21 7.87541C21 8.10747 21.0922 8.33003 21.2563 8.49412C21.4204 8.65822 21.6429 8.75041 21.875 8.75041C22.1071 8.75041 22.3296 8.65822 22.4937 8.49412C22.6578 8.33003 22.75 8.10747 22.75 7.87541C22.75 7.64334 22.6578 7.42078 22.4937 7.25669C22.3296 7.09259 22.1071 7.00041 21.875 7.00041ZM6.125 5.25041C5.42881 5.25041 4.76113 5.52697 4.26885 6.01925C3.77656 6.51153 3.5 7.17921 3.5 7.87541C3.5 8.5716 3.77656 9.23928 4.26885 9.73156C4.76113 10.2238 5.42881 10.5004 6.125 10.5004C6.82119 10.5004 7.48887 10.2238 7.98116 9.73156C8.47344 9.23928 8.75 8.5716 8.75 7.87541C8.75 7.17921 8.47344 6.51153 7.98116 6.01925C7.48887 5.52697 6.82119 5.25041 6.125 5.25041ZM5.25 7.87541C5.25 7.64334 5.34219 7.42078 5.50628 7.25669C5.67038 7.09259 5.89294 7.00041 6.125 7.00041C6.35706 7.00041 6.57962 7.09259 6.74372 7.25669C6.90781 7.42078 7 7.64334 7 7.87541C7 8.10747 6.90781 8.33003 6.74372 8.49412C6.57962 8.65822 6.35706 8.75041 6.125 8.75041C5.89294 8.75041 5.67038 8.65822 5.50628 8.49412C5.34219 8.33003 5.25 8.10747 5.25 7.87541ZM7.469 12.2504C7.16178 12.7825 7.00003 13.386 7 14.0004H3.5V18.3754C3.49986 18.8107 3.60797 19.2392 3.81459 19.6223C4.02122 20.0054 4.31988 20.3312 4.68368 20.5702C5.04748 20.8092 5.46501 20.954 5.89868 20.9915C6.33235 21.029 6.76855 20.9581 7.168 20.7852C7.2975 21.3644 7.5005 21.9174 7.763 22.4337C7.09881 22.7018 6.37894 22.8028 5.6666 22.7278C4.95426 22.6527 4.27124 22.4039 3.67752 22.0032C3.08381 21.6025 2.59756 21.0622 2.26148 20.4296C1.9254 19.7971 1.74976 19.0917 1.75 18.3754V14.0004C1.75 13.5363 1.93437 13.0912 2.26256 12.763C2.59075 12.4348 3.03587 12.2504 3.5 12.2504H7.469ZM20.237 22.4337C20.9012 22.7018 21.6211 22.8028 22.3334 22.7278C23.0457 22.6527 23.7288 22.4039 24.3225 22.0032C24.9162 21.6025 25.4024 21.0622 25.7385 20.4296C26.0746 19.7971 26.2502 19.0917 26.25 18.3754V14.0004C26.25 13.5363 26.0656 13.0912 25.7374 12.763C25.4092 12.4348 24.9641 12.2504 24.5 12.2504H20.531C20.8285 12.7649 21 13.3617 21 14.0004H24.5V18.3754C24.5001 18.8107 24.392 19.2392 24.1854 19.6223C23.9788 20.0054 23.6801 20.3312 23.3163 20.5702C22.9525 20.8092 22.535 20.954 22.1013 20.9915C21.6677 21.029 21.2315 20.9581 20.832 20.7852C20.699 21.3662 20.5007 21.9157 20.237 22.4337ZM10.5 12.2487C10.0359 12.2487 9.59075 12.433 9.26256 12.7612C8.93437 13.0894 8.75 13.5345 8.75 13.9987V19.2504C8.75 20.6428 9.30312 21.9782 10.2877 22.9627C11.2723 23.9473 12.6076 24.5004 14 24.5004C15.3924 24.5004 16.7277 23.9473 17.7123 22.9627C18.6969 21.9782 19.25 20.6428 19.25 19.2504V14.0004C19.25 13.5363 19.0656 13.0912 18.7374 12.763C18.4092 12.4348 17.9641 12.2504 17.5 12.2504L10.5 12.2487ZM10.5 13.9987H17.5V19.2504C17.5 20.1787 17.1313 21.0689 16.4749 21.7253C15.8185 22.3817 14.9283 22.7504 14 22.7504C13.0717 22.7504 12.1815 22.3817 11.5251 21.7253C10.8687 21.0689 10.5 20.1787 10.5 19.2504V13.9987Z" fill="white"/>
</svg>
