<svg width="16" height="16" viewBox="0 0 16 16" fill="none" xmlns="http://www.w3.org/2000/svg">
<g clip-path="url(#clip0_2039_7205)">
<path d="M8 5.33398L12 3.33398L8 1.33398V8.00065" stroke="#D9D9D9" stroke-width="1.33333" stroke-linecap="round" stroke-linejoin="round"/>
<path d="M5.33276 7.99414L1.66609 10.0875C1.56349 10.1456 1.47815 10.2299 1.41878 10.3318C1.35941 10.4337 1.32812 10.5495 1.32812 10.6675C1.32812 10.7854 1.35941 10.9012 1.41878 11.0031C1.47815 11.105 1.56349 11.1893 1.66609 11.2475L7.33276 14.4875C7.53545 14.6045 7.76538 14.6661 7.99942 14.6661C8.23347 14.6661 8.4634 14.6045 8.66609 14.4875L14.3328 11.2475C14.4354 11.1893 14.5207 11.105 14.5801 11.0031C14.6394 10.9012 14.6707 10.7854 14.6707 10.6675C14.6707 10.5495 14.6394 10.4337 14.5801 10.3318C14.5207 10.2299 14.4354 10.1456 14.3328 10.0875L10.6661 8.00081" stroke="#D9D9D9" stroke-width="1.33333" stroke-linecap="round" stroke-linejoin="round"/>
<path d="M4.32617 8.56641L11.6728 12.7664" stroke="#D9D9D9" stroke-width="1.33333" stroke-linecap="round" stroke-linejoin="round"/>
<path d="M11.674 8.56641L4.33398 12.7664" stroke="#D9D9D9" stroke-width="1.33333" stroke-linecap="round" stroke-linejoin="round"/>
</g>
<defs>
<clipPath id="clip0_2039_7205">
<rect width="16" height="16" fill="white"/>
</clipPath>
</defs>
</svg>
