<svg width="16" height="16" viewBox="0 0 16 16" fill="none" xmlns="http://www.w3.org/2000/svg">
<path d="M14.0013 7.33572H13.884L12.6686 3.78039L2.2373 7.33572L2.0013 7.33372M1.66797 7.33639H2.0013L9.43197 1.40039L11.31 4.03372" stroke="#D9D9D9" stroke-width="1.33333" stroke-linecap="square"/>
<path d="M9.66732 10.6667C9.66732 11.1087 9.49172 11.5326 9.17916 11.8452C8.8666 12.1577 8.44268 12.3333 8.00065 12.3333C7.55862 12.3333 7.1347 12.1577 6.82214 11.8452C6.50958 11.5326 6.33398 11.1087 6.33398 10.6667C6.33398 10.2246 6.50958 9.80072 6.82214 9.48816C7.1347 9.17559 7.55862 9 8.00065 9C8.44268 9 8.8666 9.17559 9.17916 9.48816C9.49172 9.80072 9.66732 10.2246 9.66732 10.6667Z" stroke="#D9D9D9" stroke-width="1.33333" stroke-linecap="square"/>
<path d="M14.3346 7.33398V14.0007H1.66797V7.33398H14.3346Z" stroke="#D9D9D9" stroke-width="1.33333" stroke-linecap="square"/>
<path d="M1.66797 7.33398H3.0013C3.0013 7.68761 2.86083 8.02674 2.61078 8.27679C2.36073 8.52684 2.02159 8.66732 1.66797 8.66732V7.33398ZM14.3346 7.33398H13.0013C13.0013 7.68761 13.1418 8.02674 13.3918 8.27679C13.6419 8.52684 13.981 8.66732 14.3346 8.66732V7.33398ZM1.66797 14.0007H3.00264C3.00281 13.8253 2.96841 13.6517 2.9014 13.4897C2.83439 13.3277 2.73608 13.1805 2.61211 13.0565C2.48814 12.9325 2.34094 12.8342 2.17893 12.7672C2.01692 12.7002 1.84329 12.6658 1.66797 12.666V14.0007ZM14.3346 14.0007H13.0013C13.0013 13.647 13.1418 13.3079 13.3918 13.0578C13.6419 12.8078 13.981 12.6673 14.3346 12.6673V14.0007Z" stroke="#D9D9D9" stroke-width="1.33333" stroke-linecap="square"/>
</svg>
