<svg width="16" height="16" viewBox="0 0 16 16" fill="none" xmlns="http://www.w3.org/2000/svg">
<path d="M7.99935 7.99935C7.26602 7.99935 6.63824 7.73824 6.11602 7.21602C5.59379 6.69379 5.33268 6.06602 5.33268 5.33268C5.33268 4.59935 5.59379 3.97157 6.11602 3.44935C6.63824 2.92713 7.26602 2.66602 7.99935 2.66602C8.73268 2.66602 9.36046 2.92713 9.88268 3.44935C10.4049 3.97157 10.666 4.59935 10.666 5.33268C10.666 6.06602 10.4049 6.69379 9.88268 7.21602C9.36046 7.73824 8.73268 7.99935 7.99935 7.99935ZM2.66602 13.3327V11.466C2.66602 11.0882 2.76335 10.7411 2.95802 10.4247C3.15268 10.1082 3.4109 9.86646 3.73268 9.69935C4.42157 9.3549 5.12157 9.09668 5.83268 8.92468C6.54379 8.75268 7.26602 8.66646 7.99935 8.66602C8.73268 8.66557 9.4549 8.75179 10.166 8.92468C10.8771 9.09757 11.5771 9.35579 12.266 9.69935C12.5882 9.86602 12.8467 10.1078 13.0413 10.4247C13.236 10.7416 13.3331 11.0887 13.3327 11.466V13.3327H2.66602ZM3.99935 11.9993H11.9993V11.466C11.9993 11.3438 11.9689 11.2327 11.908 11.1327C11.8471 11.0327 11.7665 10.9549 11.666 10.8993C11.066 10.5993 10.4605 10.3745 9.84935 10.2247C9.23824 10.0749 8.62157 9.99979 7.99935 9.99935C7.37713 9.9989 6.76046 10.074 6.14935 10.2247C5.53824 10.3753 4.93268 10.6002 4.33268 10.8993C4.23268 10.9549 4.15202 11.0327 4.09068 11.1327C4.02935 11.2327 3.9989 11.3438 3.99935 11.466V11.9993ZM7.99935 6.66602C8.36602 6.66602 8.68002 6.53557 8.94135 6.27468C9.20268 6.01379 9.33313 5.69979 9.33268 5.33268C9.33224 4.96557 9.20179 4.65179 8.94135 4.39135C8.6809 4.1309 8.3669 4.00024 7.99935 3.99935C7.63179 3.99846 7.31802 4.12913 7.05802 4.39135C6.79802 4.65357 6.66735 4.96735 6.66602 5.33268C6.66468 5.69802 6.79535 6.01202 7.05802 6.27468C7.32068 6.53735 7.63446 6.66779 7.99935 6.66602Z" fill="white"/>
</svg>
